<svg xmlns="http://www.w3.org/2000/svg" version="1.1" xmlns:xlink="http://www.w3.org/1999/xlink" xmlns:svgjs="http://svgjs.dev/svgjs" viewBox="0 0 800 800"><defs><radialGradient id="ccclaymoji-grad-dark" r="93%" cx="20%" cy="20%">
      <stop offset="70%" stop-color="hsl(41, 100%, 67%)" stop-opacity="0"></stop>
      <stop offset="97%" stop-color="#c89924" stop-opacity="1"></stop>
    </radialGradient><radialGradient id="ccclaymoji-grad-light" r="65%" cx="28%" cy="20%">
    <stop offset="0%" stop-color="#fffd88" stop-opacity="0.75"></stop>
    <stop offset="100%" stop-color="hsl(41, 100%, 67%)" stop-opacity="0"></stop>
  </radialGradient><filter id="ccclaymoji-blur" x="-100%" y="-100%" width="400%" height="400%" filterUnits="objectBoundingBox" primitiveUnits="userSpaceOnUse" color-interpolation-filters="sRGB">
	<feGaussianBlur stdDeviation="30" x="0%" y="0%" width="100%" height="100%" in="SourceGraphic" edgeMode="none" result="blur"></feGaussianBlur></filter><filter id="inner-blur" x="-100%" y="-100%" width="400%" height="400%" filterUnits="objectBoundingBox" primitiveUnits="userSpaceOnUse" color-interpolation-filters="sRGB">
	<feGaussianBlur stdDeviation="2" x="0%" y="0%" width="100%" height="100%" in="SourceGraphic" edgeMode="none" result="blur"></feGaussianBlur></filter><filter id="eye-shadow" x="-100%" y="-100%" width="400%" height="400%" filterUnits="objectBoundingBox" primitiveUnits="userSpaceOnUse" color-interpolation-filters="sRGB">
	<feDropShadow stdDeviation="10" dx="10" dy="10" flood-color="#000000" flood-opacity="0.2" x="0%" y="0%" width="100%" height="100%" result="dropShadow"></feDropShadow>
</filter><linearGradient id="eye-light" x1="50%" y1="0%" x2="50%" y2="100%">
      <stop offset="0%" stop-color="#555555" stop-opacity="1"></stop>
      <stop offset="100%" stop-color="black" stop-opacity="0"></stop>
    </linearGradient><linearGradient id="mouth-light" x1="50%" y1="0%" x2="50%" y2="100%">
    <stop offset="0%" stop-color="#ff9667" stop-opacity="1"></stop>
    <stop offset="100%" stop-color="hsl(3, 100%, 51%)" stop-opacity="0"></stop>
  </linearGradient><filter id="mouth-shadow" x="-100%" y="-100%" width="400%" height="400%" filterUnits="objectBoundingBox" primitiveUnits="userSpaceOnUse" color-interpolation-filters="sRGB">
	<feDropShadow stdDeviation="10" dx="10" dy="10" flood-color="#c20000" flood-opacity="0.2" x="0%" y="0%" width="100%" height="100%" result="dropShadow"></feDropShadow>
</filter></defs><g stroke-linecap="round"><path d="M621 449.99999601944637C621 578.2986916716202 528.2986956521739 682.3043438455334 400 682.3043438455334C271.7018695652174 682.3043438455334 179 578.2986916716202 179 449.99999601944637C179 321.7018655846637 271.7018695652174 217.69564819335938 400 217.69564819335938C528.2986956521739 217.69564819335938 621 321.7018655846637 621 449.99999601944637Z " fill="#c89924" opacity="0.31" filter="url(#ccclaymoji-blur)"></path><circle r="221" cx="400" cy="400" fill="hsl(41, 100%, 67%)"></circle><circle r="221" cx="400" cy="400" fill="url(#ccclaymoji-grad-dark)"></circle><circle r="221" cx="400" cy="400" fill="url(#ccclaymoji-grad-light)"></circle><path d="M229.10698318481445 398.00000762939453Q396.10698318481445 366.00000762939453 334.10698318481445 398.00000762939453 " stroke-width="21" stroke="black" fill="none" filter="url(#eye-shadow)"></path><path d="M229.10698318481445 398.00000762939453Q396.10698318481445 366.00000762939453 334.10698318481445 398.00000762939453 " stroke-width="7" stroke="url(#eye-light)" fill="none" filter="url(#inner-blur)"></path><path d="M437.6923065185547 391Q605.6923065185547 355 539.6923065185547 391 " stroke-width="21" stroke="black" fill="none" filter="url(#eye-shadow)"></path><path d="M437.6923065185547 391Q605.6923065185547 355 539.6923065185547 391 " stroke-width="7" stroke="url(#eye-light)" fill="none" filter="url(#inner-blur)"></path><path d="M346 519.9999961853027Q472 539.9999961853027 451 519.9999961853027 " stroke-width="21" stroke="hsl(3, 100%, 51%)" fill="none" filter="url(#mouth-shadow)" transform="rotate(328, 400, 400)"></path><path d="M346 519.9999961853027Q472 539.9999961853027 451 519.9999961853027 " stroke-width="7" stroke="url(#mouth-light)" fill="none" filter="url(#inner-blur)" transform="rotate(328, 400, 400)"></path></g></svg>