<svg xmlns="http://www.w3.org/2000/svg" version="1.1" xmlns:xlink="http://www.w3.org/1999/xlink" xmlns:svgjs="http://svgjs.dev/svgjs" viewBox="0 0 800 800"><defs><filter id="uuunion-blur" x="-100%" y="-100%" width="400%" height="400%" color-interpolation-filters="sRGB">
        <feGaussianBlur in="SourceGraphic" stdDeviation="3 0" result="blur"></feGaussianBlur>
        <feDropShadow stdDeviation="44.30769230769231" in="blur" dx="36" dy="36" flood-color="hsl(288, 56%, 49%)" flood-opacity="0.43" x="0%" y="0%" width="100%" height="100%"></feDropShadow>
      </filter><filter id="uuunion-blur2" x="-100%" y="-100%" width="400%" height="400%" color-interpolation-filters="sRGB">
        <feGaussianBlur in="SourceGraphic" stdDeviation="3 0" result="blur"></feGaussianBlur>
        <feDropShadow stdDeviation="44.30769230769231" in="blur" dx="-36" dy="-36" flood-color="hsl(288, 56%, 49%)" flood-opacity="0.43" x="0%" y="0%" width="100%" height="100%"></feDropShadow>
      </filter><linearGradient gradientTransform="rotate(49, 0.5, 0.5)" x1="50%" y1="0%" x2="50%" y2="100%" id="uuunion-grad"><stop stop-color="hsl(206, 49%, 55%)" offset="10%"></stop><stop stop-color="hsl(288, 56%, 49%)" offset="90%"></stop></linearGradient><linearGradient gradientTransform="rotate(105, 0.5, 0.5)" x1="50%" y1="0%" x2="50%" y2="100%" id="uuunion-grad2"><stop stop-color="hsl(206, 49%, 55%)" offset="25%"></stop><stop stop-color="hsl(288, 56%, 49%)" offset="100%"></stop></linearGradient><linearGradient gradientTransform="rotate(326, 0.5, 0.5)" x1="50%" y1="0%" x2="50%" y2="100%" id="uuunion-grad3"><stop stop-color="hsl(206, 49%, 55%)" offset="0%"></stop><stop stop-color="hsl(288, 56%, 49%)" offset="75%"></stop></linearGradient></defs><path d="M-74.6 -83.6Q-60.8 -81.99 -47 -79.96 -33.2 -77.93 -19.4 -76.35 -5.59 -75.55 8.2 -75.71 22 -76.8 35.8 -78.58 49.6 -80.66 63.4 -82.6 77.2 -83.98 91 -84.49 104.8 -84.04 118.6 -82.72 132.4 -80.81 146.2 -78.72 160 -76.91 173.8 -75.76 187.6 -75.53 201.4 -76.26 215.21 -77.8 229.01 -79.81 242.81 -81.86 256.61 -83.51 270.41 -84.4 284.21 -84.34 298.01 -83.34 311.81 -81.62 325.61 -79.55 339.41 -77.58 353.21 -76.12 367.01 -75.5 380.81 -75.85 394.61 -77.1 408.41 -78.97 422.21 -81.06 436.02 -82.92 449.82 -84.15 463.62 -84.48 477.42 -83.85 491.22 -82.39 505.02 -80.41 518.82 -78.34 532.62 -76.63 546.42 -75.64 560.22 -75.6 574.02 -76.5 587.82 -78.16 601.62 -80.21 615.42 -82.22 629.22 -83.75 643.02 -84.46 656.83 -84.22 670.63 -83.06 684.43 -81.24 698.23 -79.15 712.03 -77.25 725.83 -75.93 739.63 -75.5 753.43 -76.03 767.23 -77.42 781.03 -79.36 794.83 -81.44 808.63 -83.21 812.24 -68.95 821.44 -54.69 835.48 -40.42 853.21 -26.16 873.14 -11.9 893.64 2.35 913.01 16.62 929.66 30.88 942.2 45.14 949.6 59.41 951.25 73.67 947.01 87.93 937.23 102.19 922.73 116.46 904.69 130.72 884.61 144.98 864.15 159.25 845 173.51 828.74 187.77 816.72 202.03 809.92 216.3 808.92 230.56 813.79 244.82 824.13 259.08 839.09 273.35 857.42 287.61 877.63 301.87 898.02 316.14 916.93 330.4 932.79 344.66 944.28 358.92 950.46 373.19 950.82 387.45 945.33 401.71 934.43 415.98 919.04 430.24 900.42 444.5 880.12 458.76 859.8 473.03 841.15 487.29 825.71 501.55 814.76 515.81 809.2 530.08 809.49 544.34 815.6 558.6 827.04 572.87 842.85 587.13 861.73 601.39 882.12 615.65 902.34 629.92 920.7 644.18 935.71 658.44 946.11 672.7 951.05 686.97 950.11 701.23 943.39 715.49 931.42 729.76 915.2 744.02 896.08 758.28 875.62 772.54 855.53 786.81 837.46 801.07 822.9 815.33 813.06 829.6 799.19 857.3 785.31 889.91 771.44 920.37 757.56 942.12 743.69 950.48 729.81 943.62 715.94 923.04 702.06 893.17 688.19 860.46 674.31 831.97 660.44 813.83 646.56 809.97 632.69 821.21 618.81 845.14 604.94 876.58 591.06 908.76 577.19 934.74 563.31 948.9 549.44 948.2 535.56 932.78 521.69 905.98 507.81 873.57 493.94 842.55 480.06 819.6 466.19 809.68 452.31 814.94 438.44 834.22 424.56 863.39 410.69 896.13 396.81 925.39 382.94 944.86 369.06 950.34 355.19 940.64 341.31 917.86 327.44 886.91 313.56 854.46 299.68 827.53 285.81 811.91 271.93 810.99 258.06 824.95 244.18 850.78 230.31 882.92 216.43 914.43 202.56 938.51 188.68 949.96 174.81 946.32 160.93 928.38 147.06 899.99 133.18 867.29 119.31 837.34 105.43 816.58 91.56 809.5 77.68 817.64 63.81 839.22 49.93 869.6 36.06 902.23 22.18 930.05 8.31 947.08 -5.56 949.64 -19.43 937.17 -33.31 912.37 -47.18 880.58 -61.06 848.67 -74.93 823.51 -75.68 809.34 -76.78 795.17 -78.14 780.99 -79.66 766.82 -81.21 752.65 -82.66 738.47 -83.88 724.3 -84.79 710.12 -85.3 695.95 -85.37 681.78 -85 667.6 -84.21 653.43 -83.07 639.25 -81.68 625.08 -80.16 610.91 -78.61 596.73 -77.19 582.56 -75.99 568.39 -75.12 554.21 -74.66 540.04 -74.64 525.86 -75.06 511.69 -75.89 497.52 -77.06 483.34 -78.47 469.17 -80 455 -81.54 440.82 -82.95 426.65 -84.11 412.47 -84.94 398.3 -85.35 384.13 -85.32 369.95 -84.86 355.78 -83.99 341.6 -82.79 327.43 -81.36 313.26 -79.82 299.08 -78.29 284.91 -76.9 270.74 -75.77 256.56 -74.99 242.39 -74.62 228.21 -74.7 214.04 -75.21 199.87 -76.12 185.69 -77.35 171.52 -78.8 157.34 -80.34 143.17 -81.86 129 -83.23 114.82 -84.32 100.65 -85.06 86.48 -85.38 72.3 -85.26 58.13 -84.7 43.95 -83.75 29.78 -82.49 15.61 -81.03 1.43 -79.48 -12.73 -77.97 -26.9 -76.63 -41.08 -75.57 -55.25 -74.87 -69.43 -74.6 -83.6" fill="url(#uuunion-grad)"></path><path d="M-74.6 -83.6Q-74.87 -69.43 -75.57 -55.25 -76.63 -41.08 -77.97 -26.9 -79.48 -12.73 -81.03 1.43 -82.49 15.61 -83.75 29.78 -84.7 43.95 -85.26 58.13 -85.38 72.3 -85.06 86.48 -84.32 100.65 -83.23 114.82 -81.86 129 -80.34 143.17 -78.8 157.34 -77.35 171.52 -76.12 185.69 -75.21 199.87 -74.7 214.04 -74.62 228.21 -74.99 242.39 -75.77 256.56 -76.9 270.74 -78.29 284.91 -79.82 299.08 -81.36 313.26 -82.79 327.43 -83.99 341.6 -84.86 355.78 -85.32 369.95 -74.54 378.31 -63.75 388.76 -52.96 400.31 -42.17 411.82 -31.38 422.19 -20.59 430.41 -0.36 437 3.13 437.42 16.53 427.1 29.83 411.91 42.99 393.31 55.98 373.21 68.77 353.7 81.33 336.74 93.64 323.87 105.69 315.96 117.46 313.14 128.96 314.77 140.2 319.58 151.17 325.82 161.92 331.62 172.46 335.19 182.83 335.13 193.07 330.62 203.22 321.52 213.33 308.39 223.46 292.36 233.66 274.96 243.98 257.9 254.48 242.76 265.22 230.81 276.25 222.81 287.62 218.88 299.36 218.56 311.53 220.85 324.16 224.4 337.26 227.72 350.86 229.38 364.96 228.27 379.56 223.73 394.66 215.62 410.22 204.34 426.23 190.75 442.64 176.04 459.4 161.5 476.45 148.35 493.73 137.56 511.17 129.72 528.7 124.93 546.22 122.86 563.65 122.77 580.92 123.66 597.92 124.42 614.57 124.02 630.8 121.64 646.52 116.81 661.66 109.43 676.14 99.79 689.93 88.52 702.96 76.45 715.2 64.49 726.63 53.47 737.23 44.06 747 36.64 763.77 28.28 778.33 23.59 789.83 18.51 800 9.91 778.53 -8.78 759.47 -27.47 744.96 -46.16 736.63 -64.85 735.4 -83.55 741.42 -102.24 754.01 -120.93 771.76 -139.62 757.38 -139.69 742.99 -139.81 728.6 -139.98 714.21 -140.15 699.82 -140.29 685.43 -140.36 671.05 -140.36 656.66 -140.28 642.27 -140.14 627.88 -139.97 613.49 -139.8 599.1 -139.68 584.72 -139.62 570.33 -139.65 555.94 -139.74 541.55 -139.9 527.16 -140.07 512.77 -140.23 498.39 -140.33 484 -140.37 469.61 -140.33 455.22 -140.21 440.83 -140.05 426.44 -139.88 412.06 -139.73 397.67 -139.64 383.28 -139.62 368.89 -139.69 354.5 -139.82 340.11 -139.98 325.73 -140.15 311.34 -140.29 296.95 -140.36 282.56 -140.36 268.17 -140.27 253.78 -140.13 239.4 -139.96 225.01 -139.8 210.62 -139.68 196.23 -139.62 181.84 -139.65 167.45 -139.75 153.07 -139.9 138.68 -140.07 124.29 -140.23 109.9 -140.34 95.51 -140.37 81.12 -140.32 66.74 -140.21 52.35 -140.05 37.96 -139.87 23.57 -139.73 9.18 -139.64 -5.2 -139.62 -19.58 -139.69 -33.97 -139.82 -48.36 -139.99 -62.75 -140.16 -77.14 -140.29 -91.53 -140.36 -105.91 -140.36 -120.3 -140.27 -127.99 -127.61 -109.84 -112.12 -100.73 -105.37 -91.84 -98.46 -83.14 -91.23 -74.6 -83.6" fill="url(#uuunion-grad2)" filter="url(#uuunion-blur)"></path><path d="M864.15 437.17Q874.94 436.89 885.73 433.04 896.52 425.99 907.31 416.43 918.1 405.27 928.88 393.6 945.25 385 945.33 401.71 934.43 415.98 919.04 430.24 900.42 444.5 880.12 458.76 859.8 473.03 841.15 487.29 825.71 501.55 814.76 515.81 809.2 530.08 809.49 544.34 815.6 558.6 827.04 572.87 842.85 587.13 861.73 601.39 882.12 615.65 902.34 629.92 920.7 644.18 935.71 658.44 946.11 672.7 951.05 686.97 950.11 701.23 943.39 715.49 931.42 729.76 915.2 744.02 896.08 758.28 875.62 772.54 855.53 786.81 837.46 801.07 822.9 815.33 813.06 829.6 800.33 854.75 787.6 884.5 774.86 913.43 762.13 936.27 749.4 948.85 736.66 948.89 723.93 936.38 711.2 913.59 698.46 884.68 685.73 854.92 673 829.72 660.26 813.69 647.53 809.74 634.8 818.59 622.06 838.63 609.33 866.21 596.6 896.3 583.86 923.42 571.13 942.62 558.4 950.42 545.66 945.38 532.93 928.43 520.2 902.65 507.46 872.75 494.73 844.16 482 822.11 469.26 810.6 456.53 811.74 443.8 825.31 431.06 848.85 418.33 878.06 405.6 907.63 392.86 932.16 380.13 947.18 367.4 949.97 354.67 940 341.93 919.1 329.2 891.07 316.47 861.03 303.73 834.44 291 816.15 278.27 809.5 265.53 815.69 252.8 833.6 240.07 859.96 227.33 889.98 214.6 918.17 201.87 939.41 189.13 949.82 176.4 947.51 163.67 932.9 150.93 908.64 138.2 879.17 125.47 849.85 112.73 826.02 100 812.02 87.27 810.41 74.53 821.48 61.8 843.22 49.07 871.65 36.33 901.6 23.6 927.62 1.49 930.38 -1.39 907.71 -1.23 897.02 -1.05 886.34 -0.53 870.32 0.31 865 13.35 853.45 26.6 833.04 40.02 805.99 53.6 775.52 67.28 745.3 81.05 718.91 94.84 699.32 108.63 688.44 122.36 686.84 135.98 693.69 149.46 706.92 162.75 723.51 175.81 739.99 188.6 752.97 201.09 759.62 213.26 758.09 225.09 747.79 236.57 729.47 247.68 705.05 258.45 677.33 268.87 649.6 278.98 625.05 288.79 606.39 298.34 595.38 307.67 592.61 316.84 597.44 325.9 608.08 334.91 621.92 343.93 635.9 353.03 646.98 362.28 652.62 371.74 651.13 381.49 641.92 391.58 625.55 402.09 603.66 413.07 578.69 424.56 553.49 436.61 530.9 449.26 513.31 462.54 502.35 476.45 498.59 491 501.53 506.19 509.68 522 520.79 538.4 532.21 555.36 541.29 572.82 545.77 590.71 544.15 608.98 535.84 627.53 521.29 646.29 501.84 665.16 479.59 684.04 456.96 702.83 436.43 721.42 420.08 739.71 409.33 757.61 404.75 775 405.96 791.8 411.71 807.92 420.13 823.27 428.95 837.8 435.92 857.79 438.13 864.15 437.17" fill="url(#uuunion-grad3)" filter="url(#uuunion-blur2)"></path></svg>